<svg width="174" height="46" viewBox="0 0 174 46" fill="none" xmlns="http://www.w3.org/2000/svg">
<path d="M19.53 31.72C19.53 35.6133 18.53 38.8 16.53 41.28C14.5567 43.7867 11.8633 45.04 8.45 45.04C5.06333 45.04 2.81 44.2 1.69 42.52C0.996667 41.4533 0.65 40.1467 0.65 38.6C0.65 37.08 0.783333 35.56 1.05 34.04L6.17 5.08H12.97L11.77 11.76H21.73L20.73 17.4H12.89C14.7833 18.92 16.3567 20.8933 17.61 23.32C18.89 25.7467 19.53 28.5467 19.53 31.72ZM9.49 39.32C10.3167 39.32 11.0233 38.6533 11.61 37.32C12.1967 35.9867 12.49 34.2267 12.49 32.04C12.49 29.88 12.2633 27.6933 11.81 25.48C11.3833 23.2667 10.8633 21.5333 10.25 20.28L7.85 34C7.69 34.9333 7.61 35.7467 7.61 36.44C7.61 38.36 8.23667 39.32 9.49 39.32ZM31.3122 25.88C31.9255 25.88 32.4722 25.7467 32.9522 25.48L32.7522 30C31.4989 31.04 30.0722 31.56 28.4722 31.56C26.0455 31.56 24.4722 31 23.7522 29.88C23.2722 29.1333 23.0322 28.3467 23.0322 27.52C23.0322 26.6667 23.0855 25.92 23.1922 25.28L25.5922 11.76H32.3922L30.1522 24.36C30.1255 24.52 30.1122 24.6667 30.1122 24.8C30.1122 25.52 30.5122 25.88 31.3122 25.88ZM26.3922 5.24C26.3922 3.53333 26.7655 2.29333 27.5122 1.52C28.2855 0.719999 29.4722 0.319999 31.0722 0.319999C33.3122 0.319999 34.4322 1.30667 34.4322 3.28C34.4322 4.96 34.0455 6.18667 33.2722 6.96C32.5255 7.73333 31.3389 8.12 29.7122 8.12C27.4989 8.12 26.3922 7.16 26.3922 5.24ZM43.9713 31.56C40.8779 31.56 38.6513 30.8667 37.2913 29.48C36.2779 28.4667 35.7713 27.1067 35.7713 25.4C35.7713 24.84 35.8246 24.24 35.9313 23.6L38.6513 8.12L45.9713 5.08L44.8112 11.76H55.8513L54.8513 17.4H43.8113L43.0113 21.92C42.9046 22.4267 42.8513 22.88 42.8513 23.28C42.8513 24.96 43.6513 25.8 45.2513 25.8C46.1046 25.8 46.8113 25.44 47.3713 24.72C47.9579 24 48.3579 23.04 48.5713 21.84H55.2113C54.0913 28.32 50.3446 31.56 43.9713 31.56ZM72.8444 1.92C79.2977 1.92 82.5244 4.42666 82.5244 9.44C82.5244 10.24 82.4444 11.1067 82.2844 12.04L80.6444 21.24C80.111 24.3333 79.0044 26.72 77.3244 28.4C75.671 30.0533 73.351 31.0533 70.3644 31.4C70.6577 32.36 71.3644 33.12 72.4844 33.68C73.631 34.2667 75.111 34.56 76.9244 34.56L76.7244 40.24C74.6977 40.24 72.911 40.0133 71.3644 39.56C69.8444 39.1067 68.6577 38.5467 67.8044 37.88C66.9777 37.24 66.2977 36.48 65.7644 35.6C64.9644 34.24 64.5377 32.8133 64.4844 31.32C60.0844 30.6533 57.8844 28.24 57.8844 24.08C57.8844 23.2 57.9777 22.2533 58.1644 21.24L59.8044 12.04C61.0044 5.29333 65.351 1.92 72.8444 1.92ZM68.6844 25.36C70.0177 25.36 71.0844 25.0267 71.8844 24.36C72.6844 23.6933 73.2444 22.4667 73.5644 20.68L75.0044 12.6C75.0844 12.0933 75.1244 11.64 75.1244 11.24C75.1244 9.16 74.0044 8.12 71.7644 8.12C69.0177 8.17333 67.391 9.66667 66.8844 12.6L65.4844 20.68C65.3777 21.32 65.3244 21.9867 65.3244 22.68C65.3244 24.4667 66.4444 25.36 68.6844 25.36ZM103.324 24.84C103.324 25.5333 103.671 25.88 104.364 25.88C105.084 25.88 105.684 25.7467 106.164 25.48L105.964 30C104.684 31.04 103.244 31.56 101.644 31.56C98.6307 31.56 96.9907 30.4 96.7241 28.08C95.1241 30.4 92.9641 31.56 90.2441 31.56C87.5507 31.56 85.8041 30.9467 85.0041 29.72C84.4707 28.9467 84.2041 28.0667 84.2041 27.08C84.2041 26.0933 84.2841 25.1867 84.4441 24.36L86.6841 11.76H93.4841L91.6041 22.4C91.5241 22.88 91.4841 23.36 91.4841 23.84C91.4841 25.12 92.2041 25.76 93.6441 25.76C94.8441 25.76 95.8041 25.3467 96.5241 24.52L98.8041 11.76H105.604L103.364 24.36C103.337 24.52 103.324 24.68 103.324 24.84ZM116.733 31.56C111.187 31.56 108.413 29.64 108.413 25.8C108.413 25.2667 108.467 24.6933 108.573 24.08L109.413 19.12C109.867 16.56 111.04 14.6 112.933 13.24C114.853 11.8533 117.387 11.16 120.533 11.16C125.893 11.16 128.573 13.1867 128.573 17.24C128.573 17.8267 128.52 18.4667 128.413 19.16L127.933 22H115.733L115.573 22.92C115.52 23.24 115.493 23.5333 115.493 23.8C115.493 25.2667 116.36 26 118.093 26C118.733 26 119.28 25.8 119.733 25.4C120.187 25 120.453 24.5333 120.533 24L127.173 24.08C126.293 29.0667 122.813 31.56 116.733 31.56ZM121.533 19.56C121.64 19.1067 121.693 18.6933 121.693 18.32C121.693 17.92 121.52 17.52 121.173 17.12C120.827 16.72 120.267 16.52 119.493 16.52C118.747 16.52 118.053 16.7733 117.413 17.28C116.8 17.7867 116.373 18.5467 116.133 19.56H121.533ZM150.724 15.92C150.724 16.8 150.457 17.6133 149.924 18.36H143.364C143.577 18.2 143.684 17.9333 143.684 17.56C143.684 17.1867 143.47 16.8933 143.044 16.68C142.617 16.44 142.07 16.32 141.404 16.32C139.404 16.32 138.404 16.9333 138.404 18.16C138.404 18.64 138.777 18.9867 139.524 19.2C140.27 19.4133 141.177 19.5867 142.244 19.72C143.31 19.8533 144.377 20.0533 145.444 20.32C146.51 20.56 147.417 21.0533 148.164 21.8C148.91 22.5467 149.284 23.5467 149.284 24.8C149.284 27.0133 148.39 28.6933 146.604 29.84C144.844 30.9867 142.27 31.56 138.884 31.56C135.497 31.56 133.124 31.0133 131.764 29.92C130.697 29.0667 130.164 27.8933 130.164 26.4C130.164 25.9733 130.204 25.5333 130.284 25.08L136.964 25C136.91 25.3733 137.124 25.7067 137.604 26C138.11 26.2667 138.844 26.4 139.804 26.4C140.764 26.4 141.457 26.3067 141.884 26.12C142.31 25.9067 142.524 25.52 142.524 24.96C142.524 24.5867 142.15 24.3333 141.404 24.2C140.657 24.04 139.737 23.9067 138.644 23.8C137.577 23.6933 136.497 23.52 135.404 23.28C134.337 23.04 133.43 22.5333 132.684 21.76C131.937 20.9867 131.564 19.9733 131.564 18.72C131.564 16.2933 132.497 14.4267 134.364 13.12C136.257 11.8133 138.977 11.16 142.524 11.16C147.99 11.16 150.724 12.7467 150.724 15.92ZM161.237 31.56C158.144 31.56 155.917 30.8667 154.557 29.48C153.544 28.4667 153.037 27.1067 153.037 25.4C153.037 24.84 153.09 24.24 153.197 23.6L155.917 8.12L163.237 5.08L162.077 11.76H173.117L172.117 17.4H161.077L160.277 21.92C160.17 22.4267 160.117 22.88 160.117 23.28C160.117 24.96 160.917 25.8 162.517 25.8C163.37 25.8 164.077 25.44 164.637 24.72C165.224 24 165.624 23.04 165.837 21.84H172.477C171.357 28.32 167.61 31.56 161.237 31.56Z" fill="#819A28"/>
</svg>
