<svg width="227" height="37" viewBox="0 0 227 37" fill="none" xmlns="http://www.w3.org/2000/svg">
<g clip-path="url(#clip0_103_772)">
<path d="M17.7149 1.19587C18.3862 -0.398625 20.6726 -0.398623 21.3439 1.19587L25.306 10.6069C25.5892 11.2791 26.2291 11.7384 26.9636 11.7965L37.2478 12.6111C38.9902 12.7491 39.6968 14.8973 38.3692 16.0207L30.5338 22.6515C29.9742 23.1252 29.7296 23.8684 29.9006 24.5764L32.2945 34.4909C32.7 36.1706 30.8504 37.4984 29.3585 36.5983L20.5538 31.2852C19.9249 30.9057 19.1339 30.9057 18.505 31.2852L9.70023 36.5983C8.20842 37.4984 6.35869 36.1706 6.76427 34.4909L9.15816 24.5764C9.32915 23.8684 9.08473 23.1252 8.52508 22.6515L0.689509 16.0207C-0.63806 14.8973 0.0684854 12.7491 1.81094 12.6111L12.0953 11.7965C12.8298 11.7384 13.4697 11.2791 13.7527 10.6069L17.7149 1.19587Z" fill="#766D1E"/>
<path d="M64.5852 1.19587C65.2566 -0.398625 67.543 -0.398623 68.2143 1.19587L72.1763 10.6069C72.4595 11.2791 73.0994 11.7384 73.834 11.7965L84.1181 12.6111C85.8606 12.7491 86.5671 14.8973 85.2396 16.0207L77.4041 22.6515C76.8445 23.1252 76.6 23.8684 76.771 24.5764L79.1648 34.4909C79.5704 36.1706 77.7207 37.4984 76.2289 36.5983L67.4241 31.2852C66.7952 30.9057 66.0043 30.9057 65.3754 31.2852L56.5706 36.5983C55.0788 37.4984 53.229 36.1706 53.6346 34.4909L56.0285 24.5764C56.1995 23.8684 55.9551 23.1252 55.3954 22.6515L47.5599 16.0207C46.2323 14.8973 46.9388 12.7491 48.6813 12.6111L58.9656 11.7965C59.7002 11.7384 60.3401 11.2791 60.6231 10.6069L64.5852 1.19587Z" fill="#766D1E"/>
<path d="M111.456 1.19587C112.127 -0.398625 114.414 -0.398623 115.085 1.19587L119.047 10.6069C119.33 11.2791 119.97 11.7384 120.705 11.7965L130.989 12.6111C132.731 12.7491 133.438 14.8973 132.11 16.0207L124.275 22.6515C123.715 23.1252 123.471 23.8684 123.642 24.5764L126.035 34.4909C126.441 36.1706 124.591 37.4984 123.1 36.5983L114.295 31.2852C113.666 30.9057 112.875 30.9057 112.246 31.2852L103.441 36.5983C101.949 37.4984 100.1 36.1706 100.505 34.4909L102.899 24.5764C103.07 23.8684 102.826 23.1252 102.266 22.6515L94.4305 16.0207C93.1029 14.8973 93.8095 12.7491 95.5519 12.6111L105.836 11.7965C106.571 11.7384 107.211 11.2791 107.494 10.6069L111.456 1.19587Z" fill="#766D1E"/>
<path d="M158.326 1.19587C158.998 -0.398625 161.284 -0.398623 161.955 1.19587L165.917 10.6069C166.2 11.2791 166.84 11.7384 167.575 11.7965L177.859 12.6111C179.602 12.7491 180.308 14.8973 178.981 16.0207L171.145 22.6515C170.585 23.1252 170.341 23.8684 170.512 24.5764L172.906 34.4909C173.311 36.1706 171.462 37.4984 169.97 36.5983L161.165 31.2852C160.536 30.9057 159.745 30.9057 159.116 31.2852L150.312 36.5983C148.82 37.4984 146.97 36.1706 147.376 34.4909L149.769 24.5764C149.94 23.8684 149.696 23.1252 149.136 22.6515L141.301 16.0207C139.973 14.8973 140.68 12.7491 142.422 12.6111L152.707 11.7965C153.441 11.7384 154.081 11.2791 154.364 10.6069L158.326 1.19587Z" fill="#766D1E"/>
<path d="M205.197 1.19587C205.868 -0.398625 208.155 -0.398623 208.826 1.19587L212.788 10.6069C213.071 11.2791 213.711 11.7384 214.446 11.7965L224.73 12.6111C226.472 12.7491 227.179 14.8973 225.851 16.0207L218.016 22.6515C217.456 23.1252 217.212 23.8684 217.383 24.5764L219.776 34.4909C220.182 36.1706 218.332 37.4984 216.84 36.5983L208.036 31.2852C207.407 30.9057 206.616 30.9057 205.987 31.2852L197.182 36.5983C195.69 37.4984 193.841 36.1706 194.246 34.4909L196.64 24.5764C196.811 23.8684 196.567 23.1252 196.007 22.6515L188.171 16.0207C186.844 14.8973 187.55 12.7491 189.293 12.6111L199.577 11.7965C200.312 11.7384 200.952 11.2791 201.235 10.6069L205.197 1.19587Z" fill="#766D1E"/>
</g>
<defs>
<clipPath id="clip0_103_772">
<rect width="226.541" height="36.8889" rx="18.4445" fill="white"/>
</clipPath>
</defs>
</svg>
